<?xml version="1.0" encoding="UTF-8"?>
<svg width="64px" height="66px" viewBox="0 0 64 66" version="1.1" xmlns="http://www.w3.org/2000/svg" xmlns:xlink="http://www.w3.org/1999/xlink">
    <!-- Generator: Sketch 58 (84663) - https://sketch.com -->
    <title>noun_lean ux_2336011 copy 2</title>
    <desc>Created with Sketch.</desc>
    <g id="Portfolio-Responsive-High-Fi" stroke="none" stroke-width="1" fill="none" fill-rule="evenodd" stroke-linejoin="round">
        <g id="Mobile" transform="translate(-20.000000, -3001.000000)" fill="#303030" fill-rule="nonzero" stroke="#000000" stroke-width="0.5">
            <g id="Method-2" transform="translate(20.000000, 3002.000000)">
                <g id="noun_lean-ux_2336011-copy-2">
                    <g id="Group">
                        <g transform="translate(1.842664, 0.000000)" id="Path">
                            <path d="M54.6390767,15.293455 C49.3229916,7.10988868 40.410641,2.22513241 30.7980782,2.22513241 C21.8959646,2.22513241 13.6582336,6.34523604 8.19883025,13.5291947 L6.58342831,12.240089 C12.4338859,4.54216625 21.2612692,0.127319973 30.7980782,0.127319973 C41.0965214,0.127319973 50.6456148,5.36241091 56.3425171,14.130218 L54.6390767,15.293455 Z"></path>
                            <path d="M39.9120981,61.195689 L39.3060664,59.1922781 C51.3099975,55.379504 59.3747227,44.1971148 59.3747227,31.3647961 C59.3747227,27.7628521 58.73798,24.2469185 57.4818975,20.9145434 L59.391102,20.158282 C60.7393176,23.7329544 61.422127,27.5037723 61.422127,31.3647961 C61.422127,45.1222501 52.7779863,57.1101993 39.9120981,61.195689 Z"></path>
                            <path d="M30.7980782,62.6033211 C13.9121118,62.6033211 0.17402936,48.589934 0.17402936,31.365845 C0.17402936,27.5289461 1.95219994,22.8214549 3.25025422,19.3852382 L3.42837839,18.9132304 L5.33860653,19.6694918 L5.15945866,20.1425485 C3.9197554,23.4256249 2.22040989,27.921237 2.22040989,31.365845 C2.22040989,47.4340394 15.0392078,60.5055087 30.7970545,60.5055087 C31.1932272,60.5055087 31.5873525,60.4981663 31.9804541,60.4813838 L32.0643977,62.5770985 C31.6457035,62.593881 31.2229145,62.6033211 30.7980782,62.6033211 Z"></path>
                        </g>
                        <path d="M58.4820545,16.4892081 L52.2088079,16.407767 L52.2088079,14.5145631 L57.4501627,14.3913957 L57.7367993,8.83495146 L59.5794631,8.83495146 L59.5057566,15.4319106 C59.507804,15.7119686 59.4003153,15.9804886 59.208883,16.1787319 C59.0174507,16.3769751 58.7553829,16.4892081 58.4820545,16.4892081 Z" id="Path"></path>
                        <path d="M46.2365053,63.139788 L39.8377993,63.1359046 L39.8601114,61.2798344 L45.2085423,61.0956171 L45.56644,55.6446872 L47.4462374,55.622375 L47.2932979,62.0908329 C47.2920859,62.3653729 47.1792665,62.6299277 46.98164,62.8266006 C46.7840136,63.0232735 46.5153419,63.1364783 46.2365053,63.139788 Z" id="Path-Copy-2" transform="translate(43.642018, 59.381082) rotate(121.000000) translate(-43.642018, -59.381082) "></path>
                        <path d="M8.25101813,25.2455425 L1.84029426,25.0961645 L1.81985037,23.2430841 L7.17400393,23.1806784 L7.4068803,17.7451742 L9.2896675,17.7656181 L9.28559372,24.2219477 C9.29070994,24.496093 9.18378031,24.7577296 8.99032039,24.9496475 C8.79686046,25.1415654 8.53029823,25.2485122 8.25101813,25.2455425 Z" id="Path-Copy" transform="translate(5.554759, 21.495358) rotate(-117.000000) translate(-5.554759, -21.495358) "></path>
                    </g>
                </g>
            </g>
        </g>
    </g>
</svg>