<?xml version="1.0" encoding="UTF-8"?>
<svg width="112px" height="50px" viewBox="0 0 112 50" version="1.1" xmlns="http://www.w3.org/2000/svg" xmlns:xlink="http://www.w3.org/1999/xlink">
    <!-- Generator: Sketch 58 (84663) - https://sketch.com -->
    <title>Group Copy 3</title>
    <desc>Created with Sketch.</desc>
    <g id="Portfolio-Responsive-High-Fi" stroke="none" stroke-width="1" fill="none" fill-rule="evenodd">
        <g id="Mobile" transform="translate(-20.000000, -2696.000000)" fill="#303030" fill-rule="nonzero">
            <g id="Group-Copy-3" transform="translate(20.000000, 2696.000000)">
                <path d="M25.1736111,0.548757576 C11.3059012,0.548757576 0,11.4033485 0,24.7911818 C0,38.1789091 11.3059012,49.0336061 25.1736111,49.0336061 C32.2203426,49.0336061 38.4572531,45.5433788 43.7403549,40.9370152 C48.4583503,36.8235303 52.3260231,31.8338333 55.5555556,27.3006515 C58.785088,31.8338333 62.6527608,36.8235303 67.3707562,40.9370152 C72.653858,45.5433788 78.8907685,49.0336061 85.9375,49.0336061 C99.8052099,49.0336061 111.111111,38.1789091 111.111111,24.7911818 C111.111111,11.4034091 99.8052099,0.548757576 85.9375,0.548757576 C78.8907685,0.548757576 72.653858,4.03901515 67.3707562,8.64534848 C62.6527608,12.7589697 58.785088,17.7484848 55.5555556,22.2817121 C52.3260231,17.7484545 48.4583519,12.7589697 43.7403549,8.64534848 C38.4572515,4.039 32.2203426,0.548757576 25.1736111,0.548757576 Z M25.1736111,3.57906061 C31.1775895,3.57906061 36.7575864,6.54843939 41.714892,10.8707273 C46.3953843,14.9516515 50.4196852,20.1612576 53.6747685,24.7911818 C50.4200694,29.4202727 46.3942716,34.5844394 41.714892,38.6642879 C36.7575849,42.9865606 31.1775895,46.003303 25.1736111,46.003303 C12.9399012,46.003303 3.08641975,36.5070909 3.08641975,24.7911818 C3.08641975,13.0751667 12.9399012,3.57906061 25.1736111,3.57906061 Z M85.9375,3.57906061 C98.1712099,3.57906061 108.024691,13.0752273 108.024691,24.7911818 C108.024691,36.5070909 98.1712099,46.003303 85.9375,46.003303 C79.9335216,46.003303 74.3535262,42.9865606 69.3962191,38.6642879 C64.7168395,34.5844394 60.6910417,29.4202727 57.4363426,24.7911818 C60.6914259,20.1612879 64.7157253,14.9516515 69.3962191,10.8707273 C74.3535262,6.54845455 79.9335216,3.57906061 85.9375,3.57906061 Z" id="Shape"></path>
            </g>
        </g>
    </g>
</svg>