<?xml version="1.0" encoding="UTF-8"?>
<svg width="90px" height="60px" viewBox="0 0 90 60" version="1.1" xmlns="http://www.w3.org/2000/svg" xmlns:xlink="http://www.w3.org/1999/xlink">
    <!-- Generator: Sketch 58 (84663) - https://sketch.com -->
    <title>noun_people_2583495</title>
    <desc>Created with Sketch.</desc>
    <g id="Portfolio-Responsive-High-Fi" stroke="none" stroke-width="1" fill="none" fill-rule="evenodd">
        <g id="Mobile" transform="translate(-20.000000, -3331.000000)" fill="#303030" fill-rule="nonzero">
            <g id="Method-3" transform="translate(20.000000, 3312.000000)">
                <g id="noun_people_2583495" transform="translate(0.000000, 19.000000)">
                    <g id="Group">
                        <g transform="translate(0.000000, 8.863636)">
                            <path d="M17.611155,19.7938636 C11.9159625,19.7938636 7.28269511,15.4343182 7.28269511,10.0765909 C7.28269511,4.71886364 11.9159625,0.358636364 17.611155,0.358636364 C23.3063476,0.358636364 27.938897,4.71818182 27.938897,10.0765909 C27.938897,15.435 23.3063476,19.7938636 17.611155,19.7938636 Z M17.611155,3.08590909 C13.4991571,3.08590909 10.1547034,6.22227273 10.1547034,10.0765909 C10.1547034,13.9309091 13.4991571,17.0665909 17.611155,17.0665909 C21.722435,17.0665909 25.0668887,13.9309091 25.0668887,10.0765909 C25.0668887,6.22227273 21.722435,3.08590909 17.611155,3.08590909 Z" id="Shape"></path>
                            <path d="M21.7662331,46.6990909 L3.75371488,46.6990909 C1.68371488,46.6990909 0,45.1104545 0,43.1577273 L0,38.6972727 C0,29.5656818 7.9001769,22.1365909 17.611155,22.1365909 C21.4309261,22.1365909 25.0661707,23.2684091 28.1219875,25.4093182 C28.7602914,25.8565909 28.8959938,26.7102273 28.4249844,27.3163636 C27.953975,27.9218182 27.0557544,28.0513636 26.4167326,27.6040909 C23.8584912,25.8115909 20.8134443,24.8638636 17.611155,24.8638636 C9.48408949,24.8638636 2.87200832,31.0697727 2.87200832,38.6972727 L2.87200832,43.1577273 C2.87200832,43.6063636 3.26762747,43.9718182 3.75371488,43.9718182 L21.7669511,43.9718182 C22.5596254,43.9718182 23.2029553,44.5827273 23.2029553,45.3354545 C23.2029553,46.0881818 22.5596254,46.6990909 21.7662331,46.6990909 Z" id="Path"></path>
                        </g>
                        <g transform="translate(59.594173, 8.181818)">
                            <path d="M25.6843704,46.3493182 L7.67185224,46.3493182 C6.87917794,46.3493182 6.23584807,45.7384091 6.23584807,44.9856818 C6.23584807,44.2329545 6.87917794,43.6220455 7.67185224,43.6220455 L25.6850884,43.6220455 C26.1711759,43.6220455 26.566795,43.2565909 26.566795,42.8079545 L26.566795,38.3475 C26.566795,30.7193182 19.9547138,24.5140909 11.8276483,24.5140909 C8.43293444,24.5140909 5.11935484,25.6240909 2.49649324,27.6402273 C1.88044745,28.1134091 0.97648283,28.0240909 0.476753382,27.4384091 C-0.0215400624,26.8534091 0.0725182102,25.9943182 0.69,25.5204545 C3.82192508,23.1129545 7.77739854,21.7868182 11.8276483,21.7868182 C21.5379084,21.7868182 29.4380853,29.2159091 29.4380853,38.3475 L29.4380853,42.8079545 C29.4380853,44.76 27.7543704,46.3493182 25.6843704,46.3493182 Z" id="Path"></path>
                            <path d="M11.8269303,19.8020455 C6.13173777,19.8020455 1.49918835,15.4425 1.49918835,10.0847727 C1.49918835,4.72704545 6.13173777,0.366818182 11.8269303,0.366818182 C17.5221228,0.366818182 22.1553902,4.72636364 22.1553902,10.0847727 C22.1553902,15.4431818 17.5214048,19.8020455 11.8269303,19.8020455 Z M11.8269303,3.09409091 C7.71565036,3.09409091 4.37119667,6.23045455 4.37119667,10.0847727 C4.37119667,13.9390909 7.71565036,17.0747727 11.8269303,17.0747727 C15.9389282,17.0747727 19.2833819,13.9390909 19.2833819,10.0847727 C19.2833819,6.23045455 15.9382102,3.09409091 11.8269303,3.09409091 Z" id="Shape"></path>
                        </g>
                        <g transform="translate(20.104058, 0.000000)" id="Shape">
                            <path d="M43.9022373,60 L4.92190427,60 C2.33278876,60 0.226170656,58.0145455 0.226170656,55.5736364 L0.226170656,49.3002273 C0.226170656,36.7622727 11.0751821,26.5622727 24.4120708,26.5622727 C37.7489594,26.5622727 48.5979709,36.7622727 48.5979709,49.3002273 L48.5979709,55.5736364 C48.5979709,58.0145455 46.4913528,60 43.9022373,60 Z M24.4120708,29.2902273 C12.6598127,29.2902273 3.09817898,38.2670455 3.09817898,49.3009091 L3.09817898,55.5743182 C3.09817898,56.5111364 3.91670135,57.2734091 4.92190427,57.2734091 L43.9015193,57.2734091 C44.9067222,57.2734091 45.7252445,56.5111364 45.7252445,55.5743182 L45.7252445,49.3009091 C45.7259625,38.2670455 36.1643288,29.2902273 24.4120708,29.2902273 Z"></path>
                            <path d="M23.9130593,24.9688636 C16.5951821,24.9688636 10.6407908,19.3684091 10.6407908,12.4840909 C10.6407908,5.59977273 16.5944641,0 23.9130593,0 C31.2316545,0 37.1853278,5.60045455 37.1853278,12.4847727 C37.1853278,19.3690909 31.2309365,24.9688636 23.9130593,24.9688636 Z M23.9130593,2.72727273 C18.1783767,2.72727273 13.5127992,7.10454545 13.5127992,12.4847727 C13.5127992,17.865 18.1783767,22.2422727 23.9130593,22.2422727 C29.6477419,22.2422727 34.3133195,17.865 34.3133195,12.4847727 C34.3133195,7.10454545 29.6477419,2.72727273 23.9130593,2.72727273 Z"></path>
                        </g>
                    </g>
                </g>
            </g>
        </g>
    </g>
</svg>